<mxfile host="Electron" agent="Mozilla/5.0 (Windows NT 10.0; Win64; x64) AppleWebKit/537.36 (KHTML, like Gecko) draw.io/24.7.17 Chrome/128.0.6613.36 Electron/32.0.1 Safari/537.36" version="24.7.17">
  <diagram name="Страница — 1" id="hPPcrUByunXkYxeMK2Q-">
    <mxGraphModel dx="2334" dy="674" grid="0" gridSize="10" guides="1" tooltips="1" connect="1" arrows="1" fold="1" page="0" pageScale="1" pageWidth="827" pageHeight="1169" math="0" shadow="0">
      <root>
        <mxCell id="0" />
        <mxCell id="1" parent="0" />
        <mxCell id="ef_AyhjqfBPVGRUeGjaf-38" value="" style="edgeStyle=orthogonalEdgeStyle;rounded=0;orthogonalLoop=1;jettySize=auto;html=1;" parent="1" source="ef_AyhjqfBPVGRUeGjaf-4" target="ef_AyhjqfBPVGRUeGjaf-10" edge="1">
          <mxGeometry relative="1" as="geometry" />
        </mxCell>
        <mxCell id="ef_AyhjqfBPVGRUeGjaf-4" value="Начало" style="strokeWidth=1;html=1;shape=mxgraph.flowchart.terminator;whiteSpace=wrap;" parent="1" vertex="1">
          <mxGeometry x="281.75" y="395" width="245.5" height="60" as="geometry" />
        </mxCell>
        <mxCell id="ef_AyhjqfBPVGRUeGjaf-9" value="" style="edgeStyle=orthogonalEdgeStyle;rounded=0;orthogonalLoop=1;jettySize=auto;html=1;" parent="1" source="ef_AyhjqfBPVGRUeGjaf-10" target="ef_AyhjqfBPVGRUeGjaf-14" edge="1">
          <mxGeometry relative="1" as="geometry" />
        </mxCell>
        <mxCell id="ef_AyhjqfBPVGRUeGjaf-10" value="UserChoice choice = int_input();" style="shape=process;whiteSpace=wrap;html=1;backgroundOutline=1;" parent="1" vertex="1">
          <mxGeometry x="282.5" y="496" width="242.5" height="70" as="geometry" />
        </mxCell>
        <mxCell id="ef_AyhjqfBPVGRUeGjaf-11" style="edgeStyle=orthogonalEdgeStyle;rounded=0;orthogonalLoop=1;jettySize=auto;html=1;entryX=0.5;entryY=0;entryDx=0;entryDy=0;" parent="1" source="ef_AyhjqfBPVGRUeGjaf-14" target="ef_AyhjqfBPVGRUeGjaf-16" edge="1">
          <mxGeometry relative="1" as="geometry" />
        </mxCell>
        <mxCell id="ef_AyhjqfBPVGRUeGjaf-12" value="case TASK_A" style="edgeLabel;html=1;align=center;verticalAlign=middle;resizable=0;points=[];" parent="ef_AyhjqfBPVGRUeGjaf-11" vertex="1" connectable="0">
          <mxGeometry x="-0.5516" relative="1" as="geometry">
            <mxPoint x="-1" as="offset" />
          </mxGeometry>
        </mxCell>
        <mxCell id="ef_AyhjqfBPVGRUeGjaf-13" style="edgeStyle=orthogonalEdgeStyle;rounded=0;orthogonalLoop=1;jettySize=auto;html=1;entryX=0.5;entryY=0;entryDx=0;entryDy=0;" parent="1" source="ef_AyhjqfBPVGRUeGjaf-14" target="ef_AyhjqfBPVGRUeGjaf-21" edge="1">
          <mxGeometry relative="1" as="geometry" />
        </mxCell>
        <mxCell id="ef_AyhjqfBPVGRUeGjaf-14" value="switch (choice)" style="rhombus;whiteSpace=wrap;html=1;" parent="1" vertex="1">
          <mxGeometry x="283" y="617" width="243" height="107" as="geometry" />
        </mxCell>
        <mxCell id="9teT9rNbUUUsmDvAg1Ut-1" value="" style="edgeStyle=orthogonalEdgeStyle;rounded=0;orthogonalLoop=1;jettySize=auto;html=1;" parent="1" source="ef_AyhjqfBPVGRUeGjaf-16" target="ef_AyhjqfBPVGRUeGjaf-39" edge="1">
          <mxGeometry relative="1" as="geometry" />
        </mxCell>
        <mxCell id="ef_AyhjqfBPVGRUeGjaf-16" value="int n = get_natural_int();" style="shape=process;whiteSpace=wrap;html=1;backgroundOutline=1;" parent="1" vertex="1">
          <mxGeometry x="543.5" y="707" width="242.5" height="70" as="geometry" />
        </mxCell>
        <mxCell id="ef_AyhjqfBPVGRUeGjaf-17" value="break" style="strokeWidth=1;html=1;shape=mxgraph.flowchart.terminator;whiteSpace=wrap;" parent="1" vertex="1">
          <mxGeometry x="542" y="914" width="245.5" height="60" as="geometry" />
        </mxCell>
        <mxCell id="ef_AyhjqfBPVGRUeGjaf-18" style="edgeStyle=orthogonalEdgeStyle;rounded=0;orthogonalLoop=1;jettySize=auto;html=1;entryX=0.5;entryY=0;entryDx=0;entryDy=0;" parent="1" source="ef_AyhjqfBPVGRUeGjaf-21" target="ef_AyhjqfBPVGRUeGjaf-23" edge="1">
          <mxGeometry relative="1" as="geometry" />
        </mxCell>
        <mxCell id="ef_AyhjqfBPVGRUeGjaf-19" value="case&amp;nbsp;TASK_B" style="edgeLabel;html=1;align=center;verticalAlign=middle;resizable=0;points=[];" parent="ef_AyhjqfBPVGRUeGjaf-18" vertex="1" connectable="0">
          <mxGeometry x="-0.6068" y="-1" relative="1" as="geometry">
            <mxPoint x="28" y="-1" as="offset" />
          </mxGeometry>
        </mxCell>
        <mxCell id="ef_AyhjqfBPVGRUeGjaf-20" style="edgeStyle=orthogonalEdgeStyle;rounded=0;orthogonalLoop=1;jettySize=auto;html=1;entryX=0.5;entryY=0;entryDx=0;entryDy=0;" parent="1" source="ef_AyhjqfBPVGRUeGjaf-21" target="ef_AyhjqfBPVGRUeGjaf-28" edge="1">
          <mxGeometry relative="1" as="geometry" />
        </mxCell>
        <mxCell id="ef_AyhjqfBPVGRUeGjaf-21" value="switch (choice)" style="rhombus;whiteSpace=wrap;html=1;" parent="1" vertex="1">
          <mxGeometry x="283" y="984" width="243" height="107" as="geometry" />
        </mxCell>
        <mxCell id="ef_AyhjqfBPVGRUeGjaf-42" value="" style="edgeStyle=orthogonalEdgeStyle;rounded=0;orthogonalLoop=1;jettySize=auto;html=1;" parent="1" source="ef_AyhjqfBPVGRUeGjaf-23" target="ef_AyhjqfBPVGRUeGjaf-41" edge="1">
          <mxGeometry relative="1" as="geometry" />
        </mxCell>
        <mxCell id="ef_AyhjqfBPVGRUeGjaf-23" value="double e = get_positive_double();" style="shape=process;whiteSpace=wrap;html=1;backgroundOutline=1;" parent="1" vertex="1">
          <mxGeometry x="543.5" y="1083" width="242.5" height="70" as="geometry" />
        </mxCell>
        <mxCell id="ef_AyhjqfBPVGRUeGjaf-24" value="break" style="strokeWidth=1;html=1;shape=mxgraph.flowchart.terminator;whiteSpace=wrap;" parent="1" vertex="1">
          <mxGeometry x="542" y="1348" width="245.5" height="60" as="geometry" />
        </mxCell>
        <mxCell id="ef_AyhjqfBPVGRUeGjaf-25" style="edgeStyle=orthogonalEdgeStyle;rounded=0;orthogonalLoop=1;jettySize=auto;html=1;entryX=0.5;entryY=0;entryDx=0;entryDy=0;" parent="1" source="ef_AyhjqfBPVGRUeGjaf-28" target="ef_AyhjqfBPVGRUeGjaf-31" edge="1">
          <mxGeometry relative="1" as="geometry">
            <mxPoint x="698.25" y="1982" as="targetPoint" />
          </mxGeometry>
        </mxCell>
        <mxCell id="ef_AyhjqfBPVGRUeGjaf-26" value="case&amp;nbsp;default" style="edgeLabel;html=1;align=center;verticalAlign=middle;resizable=0;points=[];" parent="ef_AyhjqfBPVGRUeGjaf-25" vertex="1" connectable="0">
          <mxGeometry x="-0.4044" y="1" relative="1" as="geometry">
            <mxPoint x="-1" as="offset" />
          </mxGeometry>
        </mxCell>
        <mxCell id="ef_AyhjqfBPVGRUeGjaf-28" value="switch (choice)" style="rhombus;whiteSpace=wrap;html=1;" parent="1" vertex="1">
          <mxGeometry x="283" y="1433" width="243" height="107" as="geometry" />
        </mxCell>
        <mxCell id="ef_AyhjqfBPVGRUeGjaf-45" value="" style="edgeStyle=orthogonalEdgeStyle;rounded=0;orthogonalLoop=1;jettySize=auto;html=1;" parent="1" source="ef_AyhjqfBPVGRUeGjaf-31" target="ef_AyhjqfBPVGRUeGjaf-44" edge="1">
          <mxGeometry relative="1" as="geometry" />
        </mxCell>
        <mxCell id="ef_AyhjqfBPVGRUeGjaf-31" value="Неверный ввод" style="shape=document;whiteSpace=wrap;html=1;boundedLbl=1;" parent="1" vertex="1">
          <mxGeometry x="546.5" y="1551" width="235.5" height="80" as="geometry" />
        </mxCell>
        <mxCell id="ef_AyhjqfBPVGRUeGjaf-40" value="" style="edgeStyle=orthogonalEdgeStyle;rounded=0;orthogonalLoop=1;jettySize=auto;html=1;" parent="1" source="ef_AyhjqfBPVGRUeGjaf-39" target="ef_AyhjqfBPVGRUeGjaf-17" edge="1">
          <mxGeometry relative="1" as="geometry" />
        </mxCell>
        <mxCell id="ef_AyhjqfBPVGRUeGjaf-39" value="double sum = get_elements_sum(n);" style="shape=process;whiteSpace=wrap;html=1;backgroundOutline=1;" parent="1" vertex="1">
          <mxGeometry x="543.5" y="803" width="242.5" height="70" as="geometry" />
        </mxCell>
        <mxCell id="ef_AyhjqfBPVGRUeGjaf-43" value="" style="edgeStyle=orthogonalEdgeStyle;rounded=0;orthogonalLoop=1;jettySize=auto;html=1;" parent="1" source="ef_AyhjqfBPVGRUeGjaf-41" target="ef_AyhjqfBPVGRUeGjaf-24" edge="1">
          <mxGeometry relative="1" as="geometry" />
        </mxCell>
        <mxCell id="ef_AyhjqfBPVGRUeGjaf-41" value="&lt;div&gt;printf(&quot;Cуммa всех членов последовательности, не меньших заданного числа %lf = %lf&quot;, e,&lt;/div&gt;&lt;div&gt;&amp;nbsp; &amp;nbsp; &amp;nbsp; &amp;nbsp; &amp;nbsp; &amp;nbsp; &amp;nbsp; &amp;nbsp; &amp;nbsp; &amp;nbsp;get_sum_greater_equal_e(e));&lt;/div&gt;" style="shape=process;whiteSpace=wrap;html=1;backgroundOutline=1;" parent="1" vertex="1">
          <mxGeometry x="542" y="1195" width="244.5" height="98" as="geometry" />
        </mxCell>
        <mxCell id="ef_AyhjqfBPVGRUeGjaf-44" value="return 1" style="strokeWidth=1;html=1;shape=mxgraph.flowchart.terminator;whiteSpace=wrap;" parent="1" vertex="1">
          <mxGeometry x="541" y="1678" width="245.5" height="60" as="geometry" />
        </mxCell>
        <mxCell id="ef_AyhjqfBPVGRUeGjaf-48" value="" style="edgeStyle=orthogonalEdgeStyle;rounded=0;orthogonalLoop=1;jettySize=auto;html=1;" parent="1" source="ef_AyhjqfBPVGRUeGjaf-46" target="ef_AyhjqfBPVGRUeGjaf-47" edge="1">
          <mxGeometry relative="1" as="geometry" />
        </mxCell>
        <mxCell id="ef_AyhjqfBPVGRUeGjaf-46" value="double get_element(const double previous_element, const int k)" style="strokeWidth=1;html=1;shape=mxgraph.flowchart.terminator;whiteSpace=wrap;" parent="1" vertex="1">
          <mxGeometry x="-545.5" y="562" width="286.5" height="72" as="geometry" />
        </mxCell>
        <mxCell id="ef_AyhjqfBPVGRUeGjaf-47" value="previous_element * -1 / (4 * pow(k, 2) + 2 * k);" style="strokeWidth=1;html=1;shape=mxgraph.flowchart.terminator;whiteSpace=wrap;" parent="1" vertex="1">
          <mxGeometry x="-551" y="662" width="296" height="68" as="geometry" />
        </mxCell>
        <mxCell id="ef_AyhjqfBPVGRUeGjaf-56" value="" style="edgeStyle=orthogonalEdgeStyle;rounded=0;orthogonalLoop=1;jettySize=auto;html=1;" parent="1" source="ef_AyhjqfBPVGRUeGjaf-49" target="ef_AyhjqfBPVGRUeGjaf-50" edge="1">
          <mxGeometry relative="1" as="geometry" />
        </mxCell>
        <mxCell id="ef_AyhjqfBPVGRUeGjaf-49" value="double get_elements_sum(const int n)" style="strokeWidth=1;html=1;shape=mxgraph.flowchart.terminator;whiteSpace=wrap;" parent="1" vertex="1">
          <mxGeometry x="-309.75" y="792" width="245.5" height="60" as="geometry" />
        </mxCell>
        <mxCell id="ef_AyhjqfBPVGRUeGjaf-57" value="" style="edgeStyle=orthogonalEdgeStyle;rounded=0;orthogonalLoop=1;jettySize=auto;html=1;" parent="1" source="ef_AyhjqfBPVGRUeGjaf-50" target="ef_AyhjqfBPVGRUeGjaf-51" edge="1">
          <mxGeometry relative="1" as="geometry" />
        </mxCell>
        <mxCell id="ef_AyhjqfBPVGRUeGjaf-50" value="double current = -1;" style="rounded=0;whiteSpace=wrap;html=1;" parent="1" vertex="1">
          <mxGeometry x="-309" y="908" width="244" height="60" as="geometry" />
        </mxCell>
        <mxCell id="ef_AyhjqfBPVGRUeGjaf-58" value="" style="edgeStyle=orthogonalEdgeStyle;rounded=0;orthogonalLoop=1;jettySize=auto;html=1;" parent="1" source="ef_AyhjqfBPVGRUeGjaf-51" target="ef_AyhjqfBPVGRUeGjaf-52" edge="1">
          <mxGeometry relative="1" as="geometry" />
        </mxCell>
        <mxCell id="ef_AyhjqfBPVGRUeGjaf-51" value="double sum = current;" style="rounded=0;whiteSpace=wrap;html=1;" parent="1" vertex="1">
          <mxGeometry x="-309.75" y="1010" width="244" height="60" as="geometry" />
        </mxCell>
        <mxCell id="ef_AyhjqfBPVGRUeGjaf-54" value="" style="edgeStyle=orthogonalEdgeStyle;rounded=0;orthogonalLoop=1;jettySize=auto;html=1;" parent="1" source="ef_AyhjqfBPVGRUeGjaf-52" target="ef_AyhjqfBPVGRUeGjaf-53" edge="1">
          <mxGeometry relative="1" as="geometry" />
        </mxCell>
        <mxCell id="ef_AyhjqfBPVGRUeGjaf-52" value="(int i = 1; i &amp;lt; n; i++)" style="shape=hexagon;perimeter=hexagonPerimeter2;whiteSpace=wrap;html=1;fixedSize=1;" parent="1" vertex="1">
          <mxGeometry x="-312" y="1116" width="247" height="61" as="geometry" />
        </mxCell>
        <mxCell id="ef_AyhjqfBPVGRUeGjaf-53" value="sum += get_element(current, i);" style="shape=process;whiteSpace=wrap;html=1;backgroundOutline=1;" parent="1" vertex="1">
          <mxGeometry x="-309.75" y="1231" width="242.5" height="70" as="geometry" />
        </mxCell>
        <mxCell id="ef_AyhjqfBPVGRUeGjaf-55" style="edgeStyle=orthogonalEdgeStyle;rounded=0;orthogonalLoop=1;jettySize=auto;html=1;" parent="1" source="ef_AyhjqfBPVGRUeGjaf-53" edge="1">
          <mxGeometry relative="1" as="geometry">
            <mxPoint x="-311" y="1147" as="targetPoint" />
            <Array as="points">
              <mxPoint x="-332" y="1266" />
              <mxPoint x="-332" y="1147" />
              <mxPoint x="-311" y="1147" />
            </Array>
          </mxGeometry>
        </mxCell>
        <mxCell id="ef_AyhjqfBPVGRUeGjaf-59" value="sum;" style="strokeWidth=1;html=1;shape=mxgraph.flowchart.terminator;whiteSpace=wrap;" parent="1" vertex="1">
          <mxGeometry x="-309.75" y="1332" width="245.5" height="60" as="geometry" />
        </mxCell>
        <mxCell id="ef_AyhjqfBPVGRUeGjaf-60" style="edgeStyle=orthogonalEdgeStyle;rounded=0;orthogonalLoop=1;jettySize=auto;html=1;entryX=1;entryY=0.5;entryDx=0;entryDy=0;entryPerimeter=0;" parent="1" source="ef_AyhjqfBPVGRUeGjaf-52" target="ef_AyhjqfBPVGRUeGjaf-59" edge="1">
          <mxGeometry relative="1" as="geometry">
            <Array as="points">
              <mxPoint x="-47" y="1147" />
              <mxPoint x="-47" y="1362" />
            </Array>
          </mxGeometry>
        </mxCell>
        <mxCell id="ef_AyhjqfBPVGRUeGjaf-61" value="" style="edgeStyle=orthogonalEdgeStyle;rounded=0;orthogonalLoop=1;jettySize=auto;html=1;" parent="1" source="ef_AyhjqfBPVGRUeGjaf-62" target="ef_AyhjqfBPVGRUeGjaf-64" edge="1">
          <mxGeometry relative="1" as="geometry" />
        </mxCell>
        <mxCell id="ef_AyhjqfBPVGRUeGjaf-62" value="double get_sum_greater_equal_e(const double e)" style="strokeWidth=1;html=1;shape=mxgraph.flowchart.terminator;whiteSpace=wrap;" parent="1" vertex="1">
          <mxGeometry x="-765" y="792" width="245.5" height="60" as="geometry" />
        </mxCell>
        <mxCell id="ef_AyhjqfBPVGRUeGjaf-76" style="edgeStyle=orthogonalEdgeStyle;rounded=0;orthogonalLoop=1;jettySize=auto;html=1;entryX=0.5;entryY=0;entryDx=0;entryDy=0;" parent="1" source="ef_AyhjqfBPVGRUeGjaf-64" target="ef_AyhjqfBPVGRUeGjaf-66" edge="1">
          <mxGeometry relative="1" as="geometry" />
        </mxCell>
        <mxCell id="ef_AyhjqfBPVGRUeGjaf-64" value="double current = -1;" style="rounded=0;whiteSpace=wrap;html=1;" parent="1" vertex="1">
          <mxGeometry x="-764.25" y="879" width="244" height="60" as="geometry" />
        </mxCell>
        <mxCell id="ef_AyhjqfBPVGRUeGjaf-77" value="" style="edgeStyle=orthogonalEdgeStyle;rounded=0;orthogonalLoop=1;jettySize=auto;html=1;" parent="1" source="ef_AyhjqfBPVGRUeGjaf-66" target="ef_AyhjqfBPVGRUeGjaf-73" edge="1">
          <mxGeometry relative="1" as="geometry" />
        </mxCell>
        <mxCell id="ef_AyhjqfBPVGRUeGjaf-66" value="double sum = 0;" style="rounded=0;whiteSpace=wrap;html=1;" parent="1" vertex="1">
          <mxGeometry x="-764.25" y="973" width="244" height="60" as="geometry" />
        </mxCell>
        <mxCell id="ef_AyhjqfBPVGRUeGjaf-82" value="" style="edgeStyle=orthogonalEdgeStyle;rounded=0;orthogonalLoop=1;jettySize=auto;html=1;" parent="1" source="ef_AyhjqfBPVGRUeGjaf-68" target="ef_AyhjqfBPVGRUeGjaf-80" edge="1">
          <mxGeometry relative="1" as="geometry" />
        </mxCell>
        <mxCell id="ef_AyhjqfBPVGRUeGjaf-68" value="(fabs(current) &amp;gt;= e - DBL_EPSILON)" style="shape=hexagon;perimeter=hexagonPerimeter2;whiteSpace=wrap;html=1;fixedSize=1;" parent="1" vertex="1">
          <mxGeometry x="-764.25" y="1155" width="247" height="61" as="geometry" />
        </mxCell>
        <mxCell id="ef_AyhjqfBPVGRUeGjaf-71" value="sum;" style="strokeWidth=1;html=1;shape=mxgraph.flowchart.terminator;whiteSpace=wrap;" parent="1" vertex="1">
          <mxGeometry x="-765" y="1534" width="245.5" height="60" as="geometry" />
        </mxCell>
        <mxCell id="ef_AyhjqfBPVGRUeGjaf-78" value="" style="edgeStyle=orthogonalEdgeStyle;rounded=0;orthogonalLoop=1;jettySize=auto;html=1;" parent="1" source="ef_AyhjqfBPVGRUeGjaf-73" target="ef_AyhjqfBPVGRUeGjaf-68" edge="1">
          <mxGeometry relative="1" as="geometry" />
        </mxCell>
        <mxCell id="ef_AyhjqfBPVGRUeGjaf-73" value="int k = 1;" style="rounded=0;whiteSpace=wrap;html=1;" parent="1" vertex="1">
          <mxGeometry x="-763.5" y="1060" width="244" height="60" as="geometry" />
        </mxCell>
        <mxCell id="ef_AyhjqfBPVGRUeGjaf-84" value="" style="edgeStyle=orthogonalEdgeStyle;rounded=0;orthogonalLoop=1;jettySize=auto;html=1;" parent="1" source="ef_AyhjqfBPVGRUeGjaf-79" target="ef_AyhjqfBPVGRUeGjaf-81" edge="1">
          <mxGeometry relative="1" as="geometry" />
        </mxCell>
        <mxCell id="ef_AyhjqfBPVGRUeGjaf-79" value="current = get_element(current, k);" style="shape=process;whiteSpace=wrap;html=1;backgroundOutline=1;" parent="1" vertex="1">
          <mxGeometry x="-762.5" y="1337" width="242.5" height="70" as="geometry" />
        </mxCell>
        <mxCell id="ef_AyhjqfBPVGRUeGjaf-83" value="" style="edgeStyle=orthogonalEdgeStyle;rounded=0;orthogonalLoop=1;jettySize=auto;html=1;" parent="1" source="ef_AyhjqfBPVGRUeGjaf-80" target="ef_AyhjqfBPVGRUeGjaf-79" edge="1">
          <mxGeometry relative="1" as="geometry" />
        </mxCell>
        <mxCell id="ef_AyhjqfBPVGRUeGjaf-80" value="sum += current;" style="rounded=0;whiteSpace=wrap;html=1;" parent="1" vertex="1">
          <mxGeometry x="-762.75" y="1249" width="244" height="60" as="geometry" />
        </mxCell>
        <mxCell id="ef_AyhjqfBPVGRUeGjaf-86" style="edgeStyle=orthogonalEdgeStyle;rounded=0;orthogonalLoop=1;jettySize=auto;html=1;entryX=0;entryY=0.5;entryDx=0;entryDy=0;" parent="1" source="ef_AyhjqfBPVGRUeGjaf-81" target="ef_AyhjqfBPVGRUeGjaf-68" edge="1">
          <mxGeometry relative="1" as="geometry">
            <Array as="points">
              <mxPoint x="-784" y="1470" />
              <mxPoint x="-784" y="1186" />
            </Array>
          </mxGeometry>
        </mxCell>
        <mxCell id="ef_AyhjqfBPVGRUeGjaf-81" value="k++;" style="rounded=0;whiteSpace=wrap;html=1;" parent="1" vertex="1">
          <mxGeometry x="-764" y="1440" width="244" height="60" as="geometry" />
        </mxCell>
        <mxCell id="ef_AyhjqfBPVGRUeGjaf-85" style="edgeStyle=orthogonalEdgeStyle;rounded=0;orthogonalLoop=1;jettySize=auto;html=1;entryX=1;entryY=0.5;entryDx=0;entryDy=0;entryPerimeter=0;" parent="1" source="ef_AyhjqfBPVGRUeGjaf-68" edge="1">
          <mxGeometry relative="1" as="geometry">
            <mxPoint x="-519.5" y="1563" as="targetPoint" />
            <Array as="points">
              <mxPoint x="-499" y="1186" />
              <mxPoint x="-499" y="1563" />
            </Array>
          </mxGeometry>
        </mxCell>
        <mxCell id="ef_AyhjqfBPVGRUeGjaf-87" style="edgeStyle=orthogonalEdgeStyle;rounded=0;orthogonalLoop=1;jettySize=auto;html=1;entryX=1;entryY=0.5;entryDx=0;entryDy=0;exitX=1;exitY=0.5;exitDx=0;exitDy=0;entryPerimeter=0;" parent="1" source="ef_AyhjqfBPVGRUeGjaf-91" target="ef_AyhjqfBPVGRUeGjaf-95" edge="1">
          <mxGeometry relative="1" as="geometry">
            <mxPoint x="-588.05" y="2784" as="sourcePoint" />
            <mxPoint x="-518.05" y="2964" as="targetPoint" />
            <Array as="points">
              <mxPoint x="-495.55" y="2778" />
              <mxPoint x="-495.55" y="2872" />
            </Array>
          </mxGeometry>
        </mxCell>
        <mxCell id="ef_AyhjqfBPVGRUeGjaf-88" value="no" style="edgeLabel;html=1;align=center;verticalAlign=middle;resizable=0;points=[];" parent="ef_AyhjqfBPVGRUeGjaf-87" vertex="1" connectable="0">
          <mxGeometry x="-0.6381" relative="1" as="geometry">
            <mxPoint as="offset" />
          </mxGeometry>
        </mxCell>
        <mxCell id="ef_AyhjqfBPVGRUeGjaf-89" style="edgeStyle=orthogonalEdgeStyle;rounded=0;orthogonalLoop=1;jettySize=auto;html=1;entryX=0;entryY=0.5;entryDx=0;entryDy=0;exitX=0;exitY=0.5;exitDx=0;exitDy=0;entryPerimeter=0;" parent="1" source="ef_AyhjqfBPVGRUeGjaf-91" target="ef_AyhjqfBPVGRUeGjaf-94" edge="1">
          <mxGeometry relative="1" as="geometry">
            <mxPoint x="-868.05" y="2784" as="sourcePoint" />
            <mxPoint x="-943.05" y="2964" as="targetPoint" />
            <Array as="points">
              <mxPoint x="-974.55" y="2778" />
              <mxPoint x="-974.55" y="2872" />
            </Array>
          </mxGeometry>
        </mxCell>
        <mxCell id="ef_AyhjqfBPVGRUeGjaf-90" value="yes" style="edgeLabel;html=1;align=center;verticalAlign=middle;resizable=0;points=[];" parent="ef_AyhjqfBPVGRUeGjaf-89" vertex="1" connectable="0">
          <mxGeometry x="-0.5173" y="-4" relative="1" as="geometry">
            <mxPoint as="offset" />
          </mxGeometry>
        </mxCell>
        <mxCell id="ef_AyhjqfBPVGRUeGjaf-91" value="(scanf_s(&quot;%d&quot;, &amp;amp;value) != 1)" style="rhombus;whiteSpace=wrap;html=1;" parent="1" vertex="1">
          <mxGeometry x="-871.55" y="2703" width="290" height="150" as="geometry" />
        </mxCell>
        <mxCell id="ef_AyhjqfBPVGRUeGjaf-92" value="" style="edgeStyle=orthogonalEdgeStyle;rounded=0;orthogonalLoop=1;jettySize=auto;html=1;" parent="1" source="ef_AyhjqfBPVGRUeGjaf-93" target="ef_AyhjqfBPVGRUeGjaf-97" edge="1">
          <mxGeometry relative="1" as="geometry" />
        </mxCell>
        <mxCell id="ef_AyhjqfBPVGRUeGjaf-93" value="&lt;div style=&quot;background-color: rgb(255, 255, 255);&quot;&gt;&lt;pre style=&quot;&quot;&gt;&lt;font style=&quot;&quot;&gt;&lt;font face=&quot;Helvetica&quot;&gt;&lt;span style=&quot;white-space: normal;&quot;&gt;int int_input(void)&lt;/span&gt;&lt;/font&gt;&lt;font face=&quot;JetBrains Mono, monospace&quot; color=&quot;#202020&quot;&gt;&lt;br&gt;&lt;/font&gt;&lt;/font&gt;&lt;/pre&gt;&lt;/div&gt;" style="strokeWidth=1;html=1;shape=mxgraph.flowchart.terminator;whiteSpace=wrap;" parent="1" vertex="1">
          <mxGeometry x="-872.05" y="2531" width="291" height="60" as="geometry" />
        </mxCell>
        <mxCell id="ef_AyhjqfBPVGRUeGjaf-94" value="&lt;font style=&quot;font-size: 12px;&quot;&gt;abort();&lt;/font&gt;" style="strokeWidth=1;html=1;shape=mxgraph.flowchart.terminator;whiteSpace=wrap;" parent="1" vertex="1">
          <mxGeometry x="-953.55" y="2842" width="199" height="60" as="geometry" />
        </mxCell>
        <mxCell id="ef_AyhjqfBPVGRUeGjaf-95" value="&lt;font style=&quot;font-size: 12px;&quot;&gt;value;&lt;/font&gt;" style="strokeWidth=1;html=1;shape=mxgraph.flowchart.terminator;whiteSpace=wrap;" parent="1" vertex="1">
          <mxGeometry x="-702.55" y="2842" width="189" height="60" as="geometry" />
        </mxCell>
        <mxCell id="ef_AyhjqfBPVGRUeGjaf-96" value="" style="edgeStyle=orthogonalEdgeStyle;rounded=0;orthogonalLoop=1;jettySize=auto;html=1;" parent="1" source="ef_AyhjqfBPVGRUeGjaf-97" target="ef_AyhjqfBPVGRUeGjaf-91" edge="1">
          <mxGeometry relative="1" as="geometry" />
        </mxCell>
        <mxCell id="ef_AyhjqfBPVGRUeGjaf-97" value="&amp;nbsp;int value = 0;" style="rounded=0;whiteSpace=wrap;html=1;" parent="1" vertex="1">
          <mxGeometry x="-873.55" y="2617" width="294" height="60" as="geometry" />
        </mxCell>
        <mxCell id="ef_AyhjqfBPVGRUeGjaf-98" style="edgeStyle=orthogonalEdgeStyle;rounded=0;orthogonalLoop=1;jettySize=auto;html=1;entryX=1;entryY=0.5;entryDx=0;entryDy=0;exitX=1;exitY=0.5;exitDx=0;exitDy=0;entryPerimeter=0;" parent="1" source="ef_AyhjqfBPVGRUeGjaf-102" target="ef_AyhjqfBPVGRUeGjaf-106" edge="1">
          <mxGeometry relative="1" as="geometry">
            <mxPoint x="-52.5" y="2789" as="sourcePoint" />
            <mxPoint x="17.500000000000004" y="2969" as="targetPoint" />
            <Array as="points">
              <mxPoint x="40" y="2783" />
              <mxPoint x="40" y="2877" />
            </Array>
          </mxGeometry>
        </mxCell>
        <mxCell id="ef_AyhjqfBPVGRUeGjaf-99" value="no" style="edgeLabel;html=1;align=center;verticalAlign=middle;resizable=0;points=[];" parent="ef_AyhjqfBPVGRUeGjaf-98" vertex="1" connectable="0">
          <mxGeometry x="-0.6381" relative="1" as="geometry">
            <mxPoint as="offset" />
          </mxGeometry>
        </mxCell>
        <mxCell id="ef_AyhjqfBPVGRUeGjaf-100" style="edgeStyle=orthogonalEdgeStyle;rounded=0;orthogonalLoop=1;jettySize=auto;html=1;entryX=0;entryY=0.5;entryDx=0;entryDy=0;exitX=0;exitY=0.5;exitDx=0;exitDy=0;entryPerimeter=0;" parent="1" source="ef_AyhjqfBPVGRUeGjaf-102" target="ef_AyhjqfBPVGRUeGjaf-105" edge="1">
          <mxGeometry relative="1" as="geometry">
            <mxPoint x="-332.5" y="2789" as="sourcePoint" />
            <mxPoint x="-407.5" y="2969" as="targetPoint" />
            <Array as="points">
              <mxPoint x="-439" y="2783" />
              <mxPoint x="-439" y="2877" />
            </Array>
          </mxGeometry>
        </mxCell>
        <mxCell id="ef_AyhjqfBPVGRUeGjaf-101" value="yes" style="edgeLabel;html=1;align=center;verticalAlign=middle;resizable=0;points=[];" parent="ef_AyhjqfBPVGRUeGjaf-100" vertex="1" connectable="0">
          <mxGeometry x="-0.5173" y="-4" relative="1" as="geometry">
            <mxPoint as="offset" />
          </mxGeometry>
        </mxCell>
        <mxCell id="ef_AyhjqfBPVGRUeGjaf-102" value="(value &amp;lt; DBL_EPSILON)" style="rhombus;whiteSpace=wrap;html=1;" parent="1" vertex="1">
          <mxGeometry x="-336" y="2708" width="290" height="150" as="geometry" />
        </mxCell>
        <mxCell id="ef_AyhjqfBPVGRUeGjaf-103" value="" style="edgeStyle=orthogonalEdgeStyle;rounded=0;orthogonalLoop=1;jettySize=auto;html=1;" parent="1" source="ef_AyhjqfBPVGRUeGjaf-104" target="ef_AyhjqfBPVGRUeGjaf-108" edge="1">
          <mxGeometry relative="1" as="geometry" />
        </mxCell>
        <mxCell id="ef_AyhjqfBPVGRUeGjaf-104" value="&lt;div style=&quot;background-color: rgb(255, 255, 255);&quot;&gt;&lt;pre style=&quot;&quot;&gt;&lt;font style=&quot;&quot;&gt;&lt;font face=&quot;Helvetica&quot;&gt;&lt;span style=&quot;white-space: normal;&quot;&gt;get_positive_double&lt;/span&gt;&lt;/font&gt;&lt;font color=&quot;#202020&quot; face=&quot;JetBrains Mono, monospace&quot;&gt;&lt;br&gt;&lt;/font&gt;&lt;/font&gt;&lt;/pre&gt;&lt;/div&gt;" style="strokeWidth=1;html=1;shape=mxgraph.flowchart.terminator;whiteSpace=wrap;" parent="1" vertex="1">
          <mxGeometry x="-336.5" y="2536" width="291" height="60" as="geometry" />
        </mxCell>
        <mxCell id="ef_AyhjqfBPVGRUeGjaf-105" value="&lt;font style=&quot;font-size: 12px;&quot;&gt;abort();&lt;/font&gt;" style="strokeWidth=1;html=1;shape=mxgraph.flowchart.terminator;whiteSpace=wrap;" parent="1" vertex="1">
          <mxGeometry x="-418" y="2847" width="199" height="60" as="geometry" />
        </mxCell>
        <mxCell id="ef_AyhjqfBPVGRUeGjaf-106" value="&lt;font style=&quot;font-size: 12px;&quot;&gt;value;&lt;/font&gt;" style="strokeWidth=1;html=1;shape=mxgraph.flowchart.terminator;whiteSpace=wrap;" parent="1" vertex="1">
          <mxGeometry x="-167" y="2847" width="189" height="60" as="geometry" />
        </mxCell>
        <mxCell id="ef_AyhjqfBPVGRUeGjaf-107" value="" style="edgeStyle=orthogonalEdgeStyle;rounded=0;orthogonalLoop=1;jettySize=auto;html=1;" parent="1" source="ef_AyhjqfBPVGRUeGjaf-108" target="ef_AyhjqfBPVGRUeGjaf-102" edge="1">
          <mxGeometry relative="1" as="geometry" />
        </mxCell>
        <mxCell id="ef_AyhjqfBPVGRUeGjaf-108" value="const double value = double_input();" style="shape=process;whiteSpace=wrap;html=1;backgroundOutline=1;" parent="1" vertex="1">
          <mxGeometry x="-336" y="2622" width="291" height="60" as="geometry" />
        </mxCell>
        <mxCell id="ef_AyhjqfBPVGRUeGjaf-120" style="edgeStyle=orthogonalEdgeStyle;rounded=0;orthogonalLoop=1;jettySize=auto;html=1;entryX=1;entryY=0.5;entryDx=0;entryDy=0;exitX=1;exitY=0.5;exitDx=0;exitDy=0;entryPerimeter=0;" parent="1" source="ef_AyhjqfBPVGRUeGjaf-124" target="ef_AyhjqfBPVGRUeGjaf-128" edge="1">
          <mxGeometry relative="1" as="geometry">
            <mxPoint x="-322.54999999999995" y="2399" as="sourcePoint" />
            <mxPoint x="-252.54999999999995" y="2579" as="targetPoint" />
            <Array as="points">
              <mxPoint x="-230.04999999999995" y="2393" />
              <mxPoint x="-230.04999999999995" y="2487" />
            </Array>
          </mxGeometry>
        </mxCell>
        <mxCell id="ef_AyhjqfBPVGRUeGjaf-121" value="no" style="edgeLabel;html=1;align=center;verticalAlign=middle;resizable=0;points=[];" parent="ef_AyhjqfBPVGRUeGjaf-120" vertex="1" connectable="0">
          <mxGeometry x="-0.6381" relative="1" as="geometry">
            <mxPoint as="offset" />
          </mxGeometry>
        </mxCell>
        <mxCell id="ef_AyhjqfBPVGRUeGjaf-122" style="edgeStyle=orthogonalEdgeStyle;rounded=0;orthogonalLoop=1;jettySize=auto;html=1;entryX=0;entryY=0.5;entryDx=0;entryDy=0;exitX=0;exitY=0.5;exitDx=0;exitDy=0;entryPerimeter=0;" parent="1" source="ef_AyhjqfBPVGRUeGjaf-124" target="ef_AyhjqfBPVGRUeGjaf-127" edge="1">
          <mxGeometry relative="1" as="geometry">
            <mxPoint x="-602.55" y="2399" as="sourcePoint" />
            <mxPoint x="-677.55" y="2579" as="targetPoint" />
            <Array as="points">
              <mxPoint x="-709.05" y="2393" />
              <mxPoint x="-709.05" y="2487" />
            </Array>
          </mxGeometry>
        </mxCell>
        <mxCell id="ef_AyhjqfBPVGRUeGjaf-123" value="yes" style="edgeLabel;html=1;align=center;verticalAlign=middle;resizable=0;points=[];" parent="ef_AyhjqfBPVGRUeGjaf-122" vertex="1" connectable="0">
          <mxGeometry x="-0.5173" y="-4" relative="1" as="geometry">
            <mxPoint as="offset" />
          </mxGeometry>
        </mxCell>
        <mxCell id="ef_AyhjqfBPVGRUeGjaf-124" value="(scanf_s(&quot;%lf&quot;, &amp;amp;value) != 1)" style="rhombus;whiteSpace=wrap;html=1;" parent="1" vertex="1">
          <mxGeometry x="-606.05" y="2318" width="290" height="150" as="geometry" />
        </mxCell>
        <mxCell id="ef_AyhjqfBPVGRUeGjaf-125" value="" style="edgeStyle=orthogonalEdgeStyle;rounded=0;orthogonalLoop=1;jettySize=auto;html=1;" parent="1" source="ef_AyhjqfBPVGRUeGjaf-126" target="ef_AyhjqfBPVGRUeGjaf-130" edge="1">
          <mxGeometry relative="1" as="geometry" />
        </mxCell>
        <mxCell id="ef_AyhjqfBPVGRUeGjaf-126" value="&lt;div style=&quot;background-color: rgb(255, 255, 255);&quot;&gt;&lt;pre style=&quot;&quot;&gt;&lt;font style=&quot;&quot;&gt;&lt;font face=&quot;Helvetica&quot;&gt;&lt;span style=&quot;white-space: normal;&quot;&gt;double_input&lt;/span&gt;&lt;/font&gt;&lt;font face=&quot;JetBrains Mono, monospace&quot; color=&quot;#202020&quot;&gt;&lt;br&gt;&lt;/font&gt;&lt;/font&gt;&lt;/pre&gt;&lt;/div&gt;" style="strokeWidth=1;html=1;shape=mxgraph.flowchart.terminator;whiteSpace=wrap;" parent="1" vertex="1">
          <mxGeometry x="-606.55" y="2146" width="291" height="60" as="geometry" />
        </mxCell>
        <mxCell id="ef_AyhjqfBPVGRUeGjaf-127" value="&lt;font style=&quot;font-size: 12px;&quot;&gt;abort();&lt;/font&gt;" style="strokeWidth=1;html=1;shape=mxgraph.flowchart.terminator;whiteSpace=wrap;" parent="1" vertex="1">
          <mxGeometry x="-688.05" y="2457" width="199" height="60" as="geometry" />
        </mxCell>
        <mxCell id="ef_AyhjqfBPVGRUeGjaf-128" value="&lt;font style=&quot;font-size: 12px;&quot;&gt;value;&lt;/font&gt;" style="strokeWidth=1;html=1;shape=mxgraph.flowchart.terminator;whiteSpace=wrap;" parent="1" vertex="1">
          <mxGeometry x="-437.04999999999995" y="2457" width="189" height="60" as="geometry" />
        </mxCell>
        <mxCell id="ef_AyhjqfBPVGRUeGjaf-129" value="" style="edgeStyle=orthogonalEdgeStyle;rounded=0;orthogonalLoop=1;jettySize=auto;html=1;" parent="1" source="ef_AyhjqfBPVGRUeGjaf-130" target="ef_AyhjqfBPVGRUeGjaf-124" edge="1">
          <mxGeometry relative="1" as="geometry" />
        </mxCell>
        <mxCell id="ef_AyhjqfBPVGRUeGjaf-130" value="double value = 0;" style="rounded=0;whiteSpace=wrap;html=1;" parent="1" vertex="1">
          <mxGeometry x="-608.05" y="2232" width="294" height="60" as="geometry" />
        </mxCell>
      </root>
    </mxGraphModel>
  </diagram>
</mxfile>
